<?xml version="1.0" encoding="utf-8"?>
<!-- Generator: Adobe Illustrator 15.0.0, SVG Export Plug-In . SVG Version: 6.00 Build 0)  -->
<!DOCTYPE svg PUBLIC "-//W3C//DTD SVG 1.1//EN" "http://www.w3.org/Graphics/SVG/1.1/DTD/svg11.dtd">
<svg version="1.1" id="グループ_394" xmlns="http://www.w3.org/2000/svg" xmlns:xlink="http://www.w3.org/1999/xlink" x="0px"
	 y="0px" width="278.55px" height="214.825px" viewBox="0 0 278.55 214.825" enable-background="new 0 0 278.55 214.825"
	 xml:space="preserve">
<g>
	<path fill="#FFFFFF" d="M6.005,198.48c0.324-0.28,0.722-0.462,1.146-0.524c0.512-0.086,1.035-0.092,1.549-0.02
		c0.616,0.074,1.217,0.246,1.78,0.507c0.556,0.259,1.086,0.569,1.585,0.925c0.478,0.338,0.926,0.715,1.342,1.127l0.414-4.348
		c-0.504-0.319-1.032-0.6-1.578-0.841c-0.533-0.231-1.084-0.421-1.647-0.565c-0.66-0.162-1.331-0.273-2.008-0.332
		c-1.086-0.125-2.186-0.064-3.252,0.182c-0.859,0.199-1.667,0.578-2.37,1.109c-0.617,0.474-1.122,1.077-1.479,1.768
		c-0.344,0.676-0.557,1.408-0.628,2.162c-0.089,0.722-0.035,1.453,0.16,2.152c0.17,0.57,0.454,1.1,0.835,1.557
		c0.372,0.44,0.811,0.819,1.3,1.123c0.487,0.307,0.999,0.571,1.529,0.793c0.825,0.379,1.57,0.718,2.237,1.016
		c0.573,0.24,1.106,0.566,1.581,0.967c0.375,0.311,0.567,0.789,0.512,1.271c-0.014,0.586-0.326,1.123-0.826,1.427
		c-0.624,0.306-1.326,0.409-2.011,0.3c-1.042-0.112-2.061-0.39-3.016-0.822c-1.021-0.439-1.953-1.063-2.75-1.838L0,211.868
		c0.581,0.354,1.192,0.657,1.826,0.905c0.675,0.261,1.371,0.468,2.079,0.62c0.842,0.18,1.694,0.309,2.551,0.385l-0.001-0.001
		c1.251,0.159,2.523,0.005,3.7-0.448c0.993-0.402,1.849-1.082,2.465-1.959c0.612-0.881,0.982-1.907,1.073-2.977
		c0.089-0.732,0.026-1.477-0.185-2.184c-0.195-0.605-0.528-1.157-0.972-1.612c-0.467-0.472-1.003-0.868-1.59-1.179
		c-0.659-0.351-1.337-0.664-2.032-0.939c-0.667-0.285-1.27-0.553-1.808-0.8c-0.469-0.198-0.891-0.493-1.24-0.864
		c-0.296-0.354-0.425-0.816-0.356-1.271C5.533,199.138,5.71,198.758,6.005,198.48z"/>
	<path fill="#FFFFFF" d="M28.152,201.345c-0.436-0.382-0.935-0.687-1.473-0.9c-0.52-0.207-1.06-0.358-1.611-0.452
		c-0.489-0.086-0.984-0.138-1.481-0.156c-1.154-0.046-2.31,0.053-3.439,0.293c-0.792,0.15-1.559,0.411-2.278,0.775l-0.107,3.694
		c0.628-0.44,1.324-0.775,2.06-0.991c0.803-0.26,1.645-0.383,2.489-0.361c0.82-0.026,1.629,0.197,2.32,0.641
		c0.564,0.453,0.856,1.166,0.773,1.885l-0.026,0.903c-0.141-0.088-0.281-0.177-0.432-0.249c-0.508-0.25-1.042-0.444-1.593-0.577
		c-0.604-0.149-1.221-0.232-1.842-0.249c-0.969-0.061-1.939,0.093-2.842,0.449c-0.71,0.295-1.309,0.807-1.709,1.464
		c-0.397,0.694-0.608,1.479-0.611,2.28c-0.052,0.805,0.088,1.609,0.407,2.351c0.283,0.614,0.729,1.14,1.287,1.521
		c0.599,0.398,1.265,0.683,1.965,0.842c0.792,0.186,1.601,0.289,2.414,0.308l0.004,0.009c1.235,0.055,2.472-0.023,3.69-0.23
		c0.864-0.125,1.68-0.473,2.368-1.01c0.557-0.482,0.874-1.186,0.868-1.922l0.22-6.688c0.045-0.74-0.077-1.481-0.357-2.167
		C28.973,202.247,28.61,201.748,28.152,201.345z M24.654,211.745c-0.658,0.143-1.334,0.189-2.006,0.139
		c-0.371-0.01-0.736-0.098-1.072-0.256c-0.324-0.145-0.604-0.375-0.807-0.666c-0.196-0.281-0.294-0.619-0.28-0.961
		c-0.022-0.51,0.233-0.991,0.666-1.26c0.627-0.297,1.323-0.418,2.013-0.348c0.566,0.013,1.128,0.095,1.674,0.244
		c0.163,0.043,0.318,0.104,0.475,0.164l-0.063,2.177C25.264,211.344,25.012,211.667,24.654,211.745z"/>
	<path fill="#FFFFFF" d="M41.625,200.141l-3.078,0.082l-0.022-0.84c-0.018-0.313,0.016-0.626,0.1-0.928
		c0.11-0.422,0.439-0.751,0.86-0.863c0.218-0.063,0.443-0.096,0.67-0.1c0.289-0.021,0.578,0.029,0.843,0.146
		c0.219,0.115,0.413,0.272,0.573,0.461l-0.1-3.694c-0.282-0.1-0.575-0.162-0.873-0.188c-0.326-0.035-0.653-0.05-0.981-0.043
		c-0.563,0.014-1.125,0.08-1.675,0.199c-0.516,0.109-1.012,0.297-1.47,0.558c-0.453,0.265-0.845,0.624-1.148,1.053
		c-0.351,0.501-0.602,1.063-0.742,1.658c-0.18,0.772-0.253,1.565-0.216,2.358l0.008,0.336l-2.127,0.057l0.084,3.191l2.1-0.057
		l0.292,10.973l4.172-0.115l-0.292-10.971l3.107-0.084L41.625,200.141z"/>
	<path fill="#FFFFFF" d="M56.589,202.512c-0.466-1.147-1.29-2.114-2.348-2.758c-1.186-0.625-2.535-0.867-3.863-0.694
		c-1.966,0.035-3.819,0.931-5.067,2.45c-1.175,1.712-1.661,3.804-1.36,5.857c0.074,1.357,0.496,2.672,1.225,3.819
		c0.671,1.019,1.626,1.817,2.746,2.3c1.207,0.508,2.522,0.705,3.825,0.572l-0.004-0.002c0.97-0.066,1.931-0.234,2.866-0.5
		c0.755-0.221,1.489-0.512,2.191-0.867l-0.292-3.572c-0.305,0.156-0.674,0.336-1.108,0.541c-0.455,0.212-0.922,0.396-1.4,0.549
		c-0.496,0.163-1.01,0.268-1.53,0.312c-1.129,0.196-2.287-0.108-3.172-0.835c-0.473-0.509-0.801-1.119-1.001-1.773l9.317-0.763
		C57.539,205.555,57.192,203.988,56.589,202.512z M49.096,202.76c0.401-0.297,0.879-0.472,1.378-0.506
		c0.779-0.133,1.571,0.155,2.084,0.756c0.343,0.566,0.58,1.184,0.728,1.823l-5.225,0.429c0.029-0.378,0.077-0.754,0.165-1.124
		C48.355,203.596,48.662,203.112,49.096,202.76z"/>
	<path fill="#FFFFFF" d="M80.163,199.872c-0.109-0.732-0.383-1.433-0.8-2.045c-0.354-0.497-0.813-0.909-1.344-1.207
		c-0.505-0.281-1.055-0.475-1.625-0.572c-0.552-0.096-1.112-0.131-1.671-0.108c-0.497,0.019-0.992,0.07-1.481,0.155
		c-1.138,0.193-2.246,0.529-3.3,1c-0.743,0.311-1.439,0.725-2.068,1.23l0.663,3.635c0.522-0.563,1.133-1.035,1.809-1.399
		c0.732-0.421,1.53-0.716,2.36-0.871c0.796-0.194,1.633-0.144,2.4,0.146c0.646,0.328,1.079,0.963,1.146,1.685l0.162,0.891
		c-0.153-0.056-0.307-0.113-0.466-0.151c-0.549-0.141-1.112-0.22-1.678-0.235c-0.621-0.021-1.243,0.026-1.854,0.138
		c-0.96,0.142-1.877,0.493-2.686,1.03c-0.635,0.435-1.114,1.06-1.369,1.786c-0.245,0.762-0.289,1.572-0.126,2.355
		c0.118,0.799,0.422,1.558,0.887,2.217c0.404,0.543,0.948,0.965,1.574,1.221c0.669,0.266,1.381,0.406,2.1,0.416
		c0.813,0.018,1.626-0.051,2.425-0.2v0.005c1.219-0.203,2.414-0.535,3.563-0.99c0.817-0.303,1.541-0.813,2.1-1.479
		c0.446-0.587,0.61-1.341,0.45-2.06L80.163,199.872z M76.761,207.517c-0.615,0.276-1.267,0.462-1.935,0.552
		c-0.365,0.066-0.739,0.057-1.1-0.027c-0.348-0.076-0.669-0.243-0.929-0.485c-0.25-0.235-0.416-0.544-0.474-0.882
		c-0.125-0.493,0.024-1.016,0.392-1.366c0.552-0.422,1.209-0.685,1.9-0.759c0.556-0.104,1.123-0.141,1.688-0.107
		c0.166,0.008,0.329,0.036,0.492,0.061l0.39,2.141C77.269,206.999,77.092,207.364,76.761,207.517z"/>
	<path fill="#FFFFFF" d="M95.473,193.18c-0.66-0.596-1.499-0.957-2.385-1.025c-1.1-0.08-2.206,0.029-3.268,0.327
		c-0.629,0.165-1.248,0.37-1.851,0.616c-0.657,0.264-1.301,0.553-1.931,0.867c-0.59,0.292-1.164,0.617-1.717,0.973
		c-0.427,0.269-0.833,0.569-1.215,0.9l3.205,12.565l4.042-1.03l-2.627-10.311c0.27-0.215,0.561-0.4,0.87-0.555
		c0.384-0.201,0.79-0.359,1.211-0.467c0.42-0.116,0.857-0.164,1.293-0.142c0.643,0.024,1.231,0.366,1.571,0.912
		c0.18,0.28,0.312,0.589,0.391,0.912l2.144,8.411l4.042-1.029l-2.349-9.227C96.695,194.861,96.199,193.923,95.473,193.18z"/>
	<path fill="#FFFFFF" d="M109.965,180.642l-3.934,1.308l1.921,5.772c-0.205-0.045-0.411-0.09-0.622-0.097
		c-0.519-0.015-1.038,0.034-1.545,0.146c-0.476,0.109-0.854,0.211-1.137,0.306c-1.857,0.465-3.402,1.75-4.2,3.49
		c-0.653,1.847-0.615,3.867,0.108,5.688c0.363,1.205,0.943,2.332,1.712,3.326c0.589,0.754,1.359,1.346,2.239,1.721
		c0.844,0.332,1.751,0.469,2.655,0.4c1.022-0.076,2.03-0.282,3-0.615l0.003,0.002c0.769-0.254,1.506-0.594,2.2-1.012
		c0.648-0.385,1.241-0.855,1.763-1.4c0.462-0.477,0.811-1.051,1.019-1.682c0.191-0.617,0.178-1.28-0.038-1.89L109.965,180.642z
		 M110.69,197.945c-0.435,0.351-0.935,0.612-1.471,0.771l-0.002-0.004c-0.679,0.266-1.418,0.333-2.134,0.195
		c-0.585-0.146-1.107-0.48-1.482-0.953c-0.441-0.568-0.776-1.213-0.986-1.9c-0.3-0.796-0.436-1.644-0.4-2.493
		c0.038-0.616,0.301-1.198,0.739-1.634c0.505-0.461,1.107-0.803,1.763-1c0.356-0.113,0.727-0.181,1.1-0.199
		c0.388-0.023,0.777,0.001,1.159,0.072l2.059,6.189C111.141,197.348,111.001,197.736,110.69,197.945z"/>
	<path fill="#FFFFFF" d="M134.631,185.215c-0.421-0.344-0.924-0.574-1.46-0.668c-0.513-0.087-1.036-0.103-1.553-0.047
		c-0.517,0.057-1.011,0.128-1.483,0.215c-0.437,0.07-0.842,0.123-1.216,0.156c-0.33,0.039-0.665,0.005-0.98-0.1
		c-0.292-0.113-0.523-0.346-0.635-0.639c-0.154-0.326-0.126-0.709,0.072-1.012c0.332-0.435,0.784-0.763,1.3-0.943
		c0.671-0.313,1.406-0.465,2.146-0.446c0.697,0.028,1.407,0.075,2.131,0.142l-1.33-2.994c-0.676-0.08-1.36-0.08-2.036,0
		c-0.921,0.141-1.821,0.4-2.675,0.774c-0.609,0.253-1.183,0.585-1.706,0.987c-0.546,0.414-1.017,0.918-1.392,1.49
		c-0.376,0.574-0.609,1.229-0.682,1.912c-0.061,0.791,0.091,1.586,0.44,2.299c0.235,0.572,0.584,1.09,1.026,1.521
		c0.371,0.349,0.809,0.618,1.287,0.792c0.457,0.163,0.938,0.244,1.424,0.241c0.472-0.001,0.943-0.051,1.405-0.148
		c0.505-0.103,0.99-0.186,1.453-0.248c0.397-0.064,0.803-0.064,1.2,0c0.31,0.045,0.575,0.246,0.7,0.533
		c0.136,0.303,0.127,0.65-0.024,0.946c-0.27,0.421-0.676,0.735-1.15,0.894c-0.573,0.258-1.178,0.436-1.8,0.525
		c-0.575,0.084-1.158,0.102-1.738,0.053c-0.554-0.056-1.062-0.121-1.527-0.201l1.488,3.353c0.718-0.021,1.434-0.077,2.146-0.17
		c0.865-0.132,1.707-0.387,2.5-0.757l-0.014,0.009c0.952-0.413,1.837-0.966,2.626-1.642c0.71-0.597,1.237-1.383,1.52-2.268
		c0.262-0.957,0.169-1.977-0.263-2.87C135.573,186.254,135.161,185.674,134.631,185.215z"/>
	<path fill="#FFFFFF" d="M148.429,181.094c-0.338,0.373-0.698,0.725-1.08,1.051c-0.396,0.341-0.831,0.635-1.295,0.877
		c-0.965,0.618-2.151,0.785-3.249,0.457c-0.633-0.285-1.172-0.722-1.609-1.247l8.3-4.31c-0.686-1.438-1.613-2.75-2.74-3.877
		c-0.873-0.879-2.006-1.451-3.23-1.635c-1.334-0.119-2.672,0.18-3.831,0.853c-1.8,0.793-3.162,2.336-3.725,4.221
		c-0.42,2.032-0.06,4.149,1.011,5.927c0.593,1.223,1.492,2.272,2.608,3.047c1.013,0.682,2.203,1.051,3.423,1.063
		c1.309,0.001,2.598-0.327,3.748-0.953v0.005c0.869-0.438,1.689-0.965,2.449-1.572c0.611-0.498,1.175-1.051,1.685-1.651
		l-1.651-3.181C149.02,180.431,148.75,180.739,148.429,181.094z M139.941,177.172c0.256-0.428,0.629-0.775,1.074-1
		c0.668-0.423,1.51-0.464,2.215-0.107c0.536,0.389,0.993,0.866,1.378,1.397l-4.653,2.417c-0.12-0.359-0.222-0.725-0.284-1.1
		C139.582,178.229,139.677,177.665,139.941,177.172z"/>
	<path fill="#FFFFFF" d="M161.723,173.538c-0.423,0.537-0.941,0.992-1.529,1.342c-0.934,0.695-2.12,0.957-3.26,0.719
		c-1.062-0.414-1.933-1.205-2.444-2.221c-0.639-0.867-0.844-1.979-0.556-3.017c0.38-0.95,1.081-1.735,1.981-2.22
		c0.56-0.336,1.166-0.584,1.801-0.734c0.667-0.16,1.344-0.279,2.025-0.354l-1.847-3.071c-0.743,0.095-1.474,0.276-2.175,0.539
		c-0.748,0.269-1.468,0.608-2.15,1.015c-0.871,0.51-1.649,1.165-2.3,1.938c-0.593,0.709-1.024,1.537-1.269,2.428
		c-0.244,0.932-0.278,1.906-0.101,2.852c0.22,1.129,0.646,2.208,1.259,3.182c0.543,0.948,1.273,1.775,2.147,2.434
		c0.757,0.56,1.634,0.938,2.562,1.106c0.906,0.157,1.834,0.132,2.731-0.074c0.947-0.215,1.854-0.582,2.685-1.087h-0.007
		c0.718-0.418,1.378-0.924,1.968-1.509c0.51-0.524,0.963-1.103,1.348-1.726l-1.832-3.047
		C162.454,172.559,162.107,173.062,161.723,173.538z"/>
	<path fill="#FFFFFF" d="M170.779,154.583l-3.223,2.23l4.8,6.93c0.455,0.558,0.688,1.263,0.656,1.981
		c-0.433,1.366-1.735,2.267-3.166,2.19c-0.688-0.214-1.271-0.678-1.634-1.299l-4.801-6.93l-3.43,2.374l4.988,7.206
		c0.619,0.987,1.517,1.77,2.578,2.25c0.957,0.381,2.01,0.456,3.011,0.215c1.153-0.277,2.242-0.775,3.205-1.469l-0.001-0.004
		c1.444-0.887,2.537-2.244,3.095-3.844c0.378-1.629-0.025-3.34-1.092-4.627L170.779,154.583z"/>
	<path fill="#FFFFFF" d="M179.726,151.558c0.356-0.303,0.743-0.612,1.158-0.927c0.416-0.316,0.828-0.609,1.234-0.879
		c0.334-0.229,0.685-0.434,1.049-0.611l-1.883-2.4c-0.422,0.021-0.835,0.128-1.215,0.313c-0.627,0.303-1.215,0.682-1.751,1.125
		c-0.694,0.547-1.315,1.183-1.843,1.892c-0.492,0.648-0.938,1.331-1.333,2.043c-0.275,0.46-0.486,0.954-0.627,1.47l7.831,9.979
		l3.281-2.576l-6.758-8.613C179.137,152.083,179.423,151.81,179.726,151.558z"/>
	<path fill="#FFFFFF" d="M197.64,146.057c-0.238,0.442-0.504,0.869-0.795,1.279c-0.302,0.428-0.652,0.818-1.045,1.164
		c-0.789,0.835-1.902,1.283-3.049,1.229c-0.682-0.124-1.31-0.417-1.859-0.819l7.018-6.19c-1.013-1.23-2.229-2.279-3.594-3.1
		c-1.06-0.642-2.297-0.924-3.529-0.807c-1.324,0.208-2.551,0.82-3.513,1.754c-1.556,1.205-2.503,3.03-2.594,4.995
		c0.081,2.074,0.942,4.041,2.411,5.507c0.872,1.043,1.997,1.846,3.268,2.328c1.147,0.414,2.391,0.483,3.577,0.2
		c1.271-0.315,2.443-0.944,3.407-1.83h-0.006c0.738-0.635,1.408-1.344,2-2.116c0.473-0.629,0.887-1.301,1.236-2.006l-2.369-2.688
		C198.052,145.268,197.864,145.634,197.64,146.057z M188.449,144.301c0.145-0.477,0.422-0.902,0.801-1.229
		c0.545-0.572,1.352-0.816,2.123-0.641c0.614,0.247,1.175,0.6,1.677,1.022l-3.935,3.471c-0.202-0.32-0.389-0.65-0.539-0.999
		C188.357,145.415,188.312,144.842,188.449,144.301z"/>
	<polygon fill="#FFFFFF" points="200.114,129.299 210.177,139 213.096,135.973 203.014,126.299 	"/>
	
		<rect x="197.25" y="123.063" transform="matrix(0.7202 0.6938 -0.6938 0.7202 142.5232 -102.9281)" fill="#FFFFFF" width="3.221" height="4.314"/>
	<path fill="#FFFFFF" d="M214.947,115.129c-0.881-0.113-1.775,0.068-2.543,0.518c-0.95,0.561-1.797,1.281-2.5,2.132
		c-0.425,0.493-0.815,1.015-1.17,1.562c-0.389,0.59-0.753,1.195-1.093,1.813c-0.319,0.576-0.604,1.169-0.856,1.777
		c-0.197,0.465-0.359,0.944-0.484,1.435l9.789,8.497l2.736-3.151l-8.035-6.974c0.098-0.331,0.232-0.649,0.399-0.952
		c0.2-0.385,0.444-0.745,0.728-1.072c0.279-0.337,0.611-0.625,0.982-0.854c0.543-0.349,1.223-0.404,1.814-0.147
		c0.309,0.127,0.592,0.305,0.842,0.525l6.556,5.689l2.735-3.15l-7.191-6.24C216.908,115.815,215.967,115.327,214.947,115.129z"/>
	<path fill="#FFFFFF" d="M235.682,108.907l-8.726-6.567c-0.592-0.473-1.338-0.71-2.094-0.664c-0.815,0.08-1.596,0.376-2.258,0.859
		c-0.852,0.605-1.599,1.346-2.211,2.192c-0.678,0.882-1.246,1.842-1.695,2.859c-0.387,0.87-0.571,1.815-0.539,2.765
		c0.068,0.989,0.396,1.942,0.95,2.765c0.747,1.098,1.685,2.052,2.769,2.819c1.031,0.835,2.243,1.417,3.539,1.7
		c1.057,0.209,2.152,0.092,3.142-0.334c1.054-0.486,1.981-1.209,2.711-2.112l-0.003,0.002c0.393-0.505,0.705-1.069,0.924-1.671
		c0.184-0.514,0.276-1.055,0.273-1.6c-0.001-0.114-0.021-0.227-0.03-0.34l0.653,0.491c0.389,0.284,0.713,0.647,0.949,1.066
		c0.221,0.425,0.285,0.915,0.186,1.383c-0.166,0.677-0.482,1.306-0.93,1.841c-0.406,0.54-0.861,1.042-1.358,1.5
		c-0.457,0.43-0.946,0.822-1.463,1.176c-0.476,0.321-0.843,0.56-1.101,0.715l2.93,2.207c0.641-0.32,1.23-0.733,1.748-1.228
		c0.789-0.729,1.506-1.532,2.14-2.399c0.636-0.818,1.151-1.723,1.53-2.687c0.313-0.8,0.461-1.653,0.436-2.511
		c-0.033-0.803-0.264-1.584-0.672-2.275C237.018,110.095,236.406,109.431,235.682,108.907z M230.085,111.288
		c-0.18,0.416-0.409,0.808-0.685,1.168h-0.002c-0.521,0.726-1.365,1.15-2.259,1.139c-1.087-0.039-2.129-0.44-2.961-1.141
		c-0.617-0.451-1.159-0.996-1.607-1.613c-0.381-0.518-0.591-1.143-0.6-1.785c0.037-0.721,0.309-1.408,0.773-1.958
		c0.213-0.287,0.457-0.55,0.729-0.783c0.238-0.212,0.528-0.356,0.841-0.419c0.331-0.047,0.665,0.051,0.918,0.27l5.19,3.906
		C230.365,110.49,230.251,110.899,230.085,111.288z"/>
	<path fill="#FFFFFF" d="M231.658,94.752c0.241-0.398,0.516-0.814,0.809-1.244c0.293-0.43,0.593-0.836,0.893-1.222
		c0.246-0.323,0.516-0.627,0.807-0.91l-2.545-1.687c-0.393,0.154-0.752,0.385-1.055,0.679c-0.499,0.485-0.938,1.028-1.309,1.618
		c-0.486,0.737-0.875,1.536-1.153,2.375c-0.265,0.771-0.473,1.559-0.624,2.359c-0.116,0.522-0.16,1.058-0.132,1.593l10.571,7.009
		l2.306-3.477l-9.124-6.051C231.263,95.435,231.45,95.087,231.658,94.752z"/>
	<path fill="#FFFFFF" d="M246.921,83.898c-0.086,0.495-0.203,0.984-0.351,1.464c-0.152,0.5-0.362,0.982-0.625,1.434
		c-0.484,1.038-1.397,1.813-2.5,2.123c-0.687,0.097-1.375,0.017-2.025-0.193l4.704-8.077c-1.35-0.85-2.833-1.463-4.389-1.813
		c-1.206-0.273-2.468-0.152-3.6,0.346c-1.191,0.614-2.162,1.582-2.781,2.77c-1.097,1.632-1.422,3.664-0.891,5.558
		c0.73,1.943,2.167,3.539,4.022,4.468c1.155,0.716,2.476,1.123,3.833,1.181c1.22,0.034,2.422-0.291,3.46-0.932
		c1.108-0.699,2.022-1.665,2.659-2.809l0.002-0.002c0.501-0.834,0.913-1.718,1.23-2.638c0.25-0.746,0.432-1.513,0.541-2.292
		l-3.1-1.805C247.066,83.021,247.001,83.426,246.921,83.898z M238.028,83.705c0.337-0.716,1.026-1.201,1.813-1.277
		c0.66,0.042,1.303,0.202,1.912,0.446l-2.642,4.529c-0.292-0.24-0.573-0.495-0.825-0.778c-0.371-0.417-0.593-0.944-0.633-1.5
		C237.64,84.625,237.771,84.133,238.028,83.705z"/>
	<path fill="#FFFFFF" d="M255.68,66.777l-14.606-7.223l-1.838,3.714l5.45,2.697c-0.177,0.115-0.354,0.229-0.507,0.375
		c-0.376,0.358-0.706,0.761-0.983,1.2c-0.257,0.415-0.454,0.756-0.585,1.023c-0.973,1.647-1.146,3.647-0.47,5.437
		c0.852,1.763,2.313,3.158,4.114,3.926c1.11,0.589,2.32,0.971,3.568,1.124c0.949,0.112,1.913-0.02,2.799-0.382
		c0.83-0.366,1.566-0.915,2.153-1.606c0.665-0.779,1.228-1.64,1.673-2.562l0.004-0.003c0.361-0.726,0.639-1.489,0.83-2.276
		c0.182-0.731,0.266-1.483,0.246-2.236c-0.013-0.664-0.177-1.316-0.479-1.908C256.746,67.507,256.265,67.051,255.68,66.777z
		 M253.876,71.211c-0.056,0.556-0.221,1.095-0.486,1.586l-0.004-0.001c-0.289,0.669-0.762,1.242-1.363,1.653
		c-0.516,0.314-1.12,0.449-1.72,0.383c-0.714-0.086-1.407-0.302-2.044-0.636c-0.777-0.346-1.477-0.845-2.055-1.468
		c-0.412-0.461-0.639-1.057-0.64-1.675c0.026-0.684,0.208-1.353,0.528-1.956c0.169-0.334,0.38-0.645,0.629-0.923
		c0.257-0.292,0.549-0.552,0.867-0.774l5.853,2.892C253.771,70.471,253.947,70.843,253.876,71.211z"/>
	
		<rect x="243.664" y="53.327" transform="matrix(0.9184 0.3958 -0.3958 0.9184 41.9848 -92.5411)" fill="#FFFFFF" width="3.219" height="4.312"/>
	<polygon fill="#FFFFFF" points="247.887,58.865 260.718,64.393 262.38,60.533 249.537,55.033 	"/>
	<path fill="#FFFFFF" d="M264.275,45.526c-0.002,0.502-0.035,1.003-0.1,1.5c-0.065,0.52-0.189,1.029-0.372,1.52
		c-0.3,1.105-1.067,2.024-2.101,2.517c-0.66,0.212-1.353,0.25-2.028,0.153l3.266-8.757c-1.474-0.608-3.04-0.96-4.632-1.04
		c-1.236-0.065-2.462,0.269-3.494,0.954c-1.068,0.807-1.861,1.925-2.27,3.2c-0.804,1.795-0.779,3.853,0.067,5.629
		c1.051,1.79,2.737,3.117,4.724,3.718c1.261,0.51,2.631,0.687,3.979,0.513c1.207-0.174,2.338-0.698,3.251-1.507
		c0.974-0.876,1.71-1.984,2.144-3.221l-0.002,0.001c0.352-0.907,0.607-1.848,0.764-2.808c0.121-0.778,0.169-1.565,0.145-2.352
		l-3.357-1.252C264.269,44.637,264.275,45.048,264.275,45.526z M255.35,48.309c-0.099-0.489-0.056-0.997,0.126-1.462
		c0.211-0.762,0.809-1.357,1.57-1.566c0.659-0.071,1.319-0.024,1.961,0.113l-1.833,4.913c-0.329-0.186-0.649-0.389-0.946-0.625
		C255.792,49.334,255.483,48.851,255.35,48.309z"/>
	<path fill="#FFFFFF" d="M261.343,25.351c-0.849,0.261-1.588,0.797-2.1,1.524c-0.633,0.903-1.104,1.91-1.391,2.975
		c-0.182,0.625-0.321,1.262-0.418,1.906c-0.111,0.696-0.191,1.396-0.244,2.1c-0.053,0.656-0.066,1.315-0.044,1.973
		c0.013,0.503,0.063,1.004,0.153,1.5l12.425,3.686l1.185-4l-10.199-3.021c-0.047-0.342-0.058-0.688-0.03-1.031
		c0.022-0.434,0.096-0.863,0.219-1.279c0.114-0.421,0.297-0.821,0.54-1.183c0.349-0.543,0.945-0.876,1.591-0.887
		c0.333-0.011,0.665,0.033,0.984,0.131l8.321,2.464l1.186-4l-9.129-2.7C263.413,25.163,262.354,25.107,261.343,25.351z"/>
	<path fill="#FFFFFF" d="M272.968,14.961c0.233,0.588,0.294,1.23,0.176,1.851c-0.049,0.379-0.258,0.718-0.576,0.93
		c-0.354,0.154-0.752,0.174-1.119,0.057l-6.383-1.48l0.7-3.028l-3.11-0.721l-0.699,3.028l-3.791-0.88l-0.987,4.255l3.791,0.88
		l-0.468,2.018l3.109,0.721l0.469-2.018l6.899,1.6c1.168,0.35,2.429,0.194,3.478-0.429c1.061-0.806,1.764-1.994,1.959-3.311h0.002
		c0.1-0.435,0.16-0.878,0.179-1.324c0.022-0.451-0.024-0.902-0.136-1.339L272.968,14.961z"/>
	<path fill="#FFFFFF" d="M278.48,4.915c-0.098-0.923-0.455-1.8-1.029-2.529c-0.647-0.752-1.545-1.245-2.527-1.386
		c-0.685-0.154-1.396-0.141-2.073,0.038c-0.521,0.159-0.993,0.447-1.371,0.838c-0.357,0.377-0.662,0.802-0.905,1.261
		c-0.244,0.46-0.461,0.91-0.652,1.35c-0.186,0.406-0.367,0.772-0.549,1.1c-0.154,0.295-0.369,0.552-0.633,0.755
		c-0.256,0.18-0.578,0.242-0.883,0.17c-0.356-0.057-0.658-0.292-0.8-0.624c-0.175-0.517-0.194-1.073-0.058-1.6
		c0.118-0.731,0.402-1.426,0.832-2.029c0.413-0.562,0.85-1.124,1.31-1.687L265.916,0c-0.447,0.515-0.831,1.081-1.145,1.686
		c-0.398,0.842-0.686,1.732-0.854,2.649c-0.131,0.647-0.177,1.308-0.136,1.967c0.038,0.684,0.192,1.355,0.46,1.986
		c0.264,0.633,0.675,1.193,1.199,1.635c0.623,0.494,1.367,0.813,2.154,0.922c0.605,0.126,1.229,0.126,1.835,0
		c0.496-0.111,0.964-0.323,1.376-0.623c0.392-0.289,0.73-0.643,1-1.047c0.264-0.392,0.484-0.81,0.662-1.247
		c0.197-0.477,0.4-0.925,0.605-1.343c0.17-0.364,0.397-0.698,0.674-0.99c0.209-0.231,0.524-0.336,0.832-0.279
		c0.326,0.056,0.609,0.258,0.769,0.549c0.198,0.458,0.233,0.971,0.1,1.453c-0.106,0.621-0.299,1.223-0.571,1.79
		c-0.253,0.524-0.564,1.017-0.93,1.47c-0.352,0.43-0.689,0.815-1.016,1.157l3.611,0.64c0.385-0.606,0.737-1.232,1.058-1.875
		c0.376-0.79,0.636-1.629,0.772-2.492v0.001C278.563,6.989,278.599,5.946,278.48,4.915z"/>
</g>
</svg>
