<?xml version="1.0" encoding="utf-8"?>
<!-- Generator: Adobe Illustrator 15.0.0, SVG Export Plug-In . SVG Version: 6.00 Build 0)  -->
<!DOCTYPE svg PUBLIC "-//W3C//DTD SVG 1.1//EN" "http://www.w3.org/Graphics/SVG/1.1/DTD/svg11.dtd">
<svg version="1.1" id="レイヤー_1" xmlns="http://www.w3.org/2000/svg" xmlns:xlink="http://www.w3.org/1999/xlink" x="0px"
	 y="0px" width="19.65px" height="16.746px" viewBox="0 0 19.65 16.746" enable-background="new 0 0 19.65 16.746"
	 xml:space="preserve">
<path fill="#FFFFFF" d="M19.21,7.313l-6.251-6.252c-0.586-0.586-1.535-0.586-2.121,0c-0.586,0.585-0.586,1.535,0,2.121l3.541,3.542
	H1.5c-0.829,0-1.5,0.671-1.5,1.5s0.671,1.5,1.5,1.5h13.179l-3.841,3.842c-0.586,0.586-0.586,1.535,0,2.121
	c0.293,0.293,0.677,0.439,1.061,0.439s0.768-0.146,1.061-0.439l6.251-6.252C19.796,8.848,19.796,7.898,19.21,7.313z"/>
</svg>
