<?xml version="1.0" encoding="utf-8"?>
<!-- Generator: Adobe Illustrator 15.0.0, SVG Export Plug-In . SVG Version: 6.00 Build 0)  -->
<!DOCTYPE svg PUBLIC "-//W3C//DTD SVG 1.1//EN" "http://www.w3.org/Graphics/SVG/1.1/DTD/svg11.dtd">
<svg version="1.1" id="レイヤー_1" xmlns="http://www.w3.org/2000/svg" xmlns:xlink="http://www.w3.org/1999/xlink" x="0px"
	 y="0px" width="1920px" height="225px" viewBox="0 0 1920 225" enable-background="new 0 0 1920 225" xml:space="preserve">
<linearGradient id="SVGID_1_" gradientUnits="userSpaceOnUse" x1="-539.04" y1="-73.4253" x2="1380.96" y2="-73.4253" gradientTransform="matrix(1 0 0 -1 539.04 39.8398)">
	<stop  offset="0" style="stop-color:#E94F4D"/>
	<stop  offset="1" style="stop-color:#861B20"/>
</linearGradient>
<path fill="url(#SVGID_1_)" d="M1239,189.662c-91.333-16.666-278-58.667-426-61.334s-269.333,20-352.667,40.667s-200,40.666-300,40
	S0,206.29,0,206.29V77.345c0,0,175,16.988,315-11.012S645,0,779.667,0S1087,30.999,1175,46.999s264.667,49.998,431.333,49.331
	S1920,79.662,1920,79.662v127.333c0,0-228.334,26.01-308.334,18.005C1501.82,225.79,1239,189.662,1239,189.662z"/>
</svg>
