<?xml version="1.0" encoding="utf-8"?>
<!-- Generator: Adobe Illustrator 15.0.0, SVG Export Plug-In . SVG Version: 6.00 Build 0)  -->
<!DOCTYPE svg PUBLIC "-//W3C//DTD SVG 1.1//EN" "http://www.w3.org/Graphics/SVG/1.1/DTD/svg11.dtd">
<svg version="1.1" id="レイヤー_1" xmlns="http://www.w3.org/2000/svg" xmlns:xlink="http://www.w3.org/1999/xlink" x="0px"
	 y="0px" width="17.125px" height="17.277px" viewBox="0 0 17.125 17.277" enable-background="new 0 0 17.125 17.277"
	 xml:space="preserve">
<g id="Icon_Mypage" transform="translate(1)">
	<g id="楕円形_2" transform="translate(2.93)">
		<circle fill="none" cx="4.689" cy="4.689" r="4.689"/>
		<path fill="#FFFFFF" d="M4.689,9.378C2.104,9.378,0,7.275,0,4.689C0,2.103,2.104,0,4.689,0s4.689,2.103,4.689,4.688
			C9.378,7.275,7.275,9.378,4.689,9.378z M4.689,2C3.206,2,2,3.206,2,4.689c0,1.483,1.206,2.689,2.689,2.689
			s2.689-1.207,2.689-2.689C7.378,3.206,6.172,2,4.689,2z"/>
	</g>
	<path fill="#FFFFFF" d="M15.124,17.278c-0.553,0-1-0.447-1-1v-1.393c-0.134-0.828-0.787-1.48-1.615-1.615H3.081
		c-0.947,0.045-1.806,0.728-2.082,1.673v1.335c0,0.553-0.448,1-1,1s-1-0.447-1-1l0.028-1.7c0.449-1.858,2.098-3.218,4.008-3.307
		l9.611-0.001l0.065,0.009c1.771,0.233,3.171,1.633,3.403,3.404l0.009,0.13v1.465C16.124,16.83,15.676,17.278,15.124,17.278z"/>
</g>
</svg>
