<?xml version="1.0" encoding="utf-8"?>
<!-- Generator: Adobe Illustrator 15.0.0, SVG Export Plug-In . SVG Version: 6.00 Build 0)  -->
<!DOCTYPE svg PUBLIC "-//W3C//DTD SVG 1.1//EN" "http://www.w3.org/Graphics/SVG/1.1/DTD/svg11.dtd">
<svg version="1.1" id="レイヤー_1" xmlns="http://www.w3.org/2000/svg" xmlns:xlink="http://www.w3.org/1999/xlink" x="0px"
	 y="0px" width="22.06px" height="22.064px" viewBox="-2.379 0 22.06 22.064" enable-background="new -2.379 0 22.06 22.064"
	 xml:space="preserve">
<g>
	<path fill="#D7231C" d="M17.298,2.522C17.248,1.108,16.1,0,14.637,0l0,0H6.206C6.192,0,6.179,0.009,6.165,0.009
		c-0.111,0.006-0.218,0.029-0.321,0.07C5.811,0.092,5.782,0.105,5.75,0.121c-0.096,0.05-0.183,0.113-0.259,0.194
		C5.479,0.326,5.463,0.331,5.452,0.344L0.246,6.319C0.087,6.501,0,6.734,0,6.976v12.567c0.053,1.413,1.201,2.521,2.663,2.521h0.001
		h11.941c0.01,0,0.067,0.001,0.078,0.001c1.414,0,2.563-1.108,2.614-2.56V2.522z M5.206,3.81v1.908
		c-0.001,0.367-0.3,0.666-0.666,0.669H3.105L5.206,3.81z M2.616,20.066c-0.333,0-0.604-0.262-0.616-0.56V8.387h2.541
		c0.001,0,0.002,0,0.003,0c1.464-0.006,2.658-1.199,2.662-2.666V2h7.478c0.334,0,0.604,0.261,0.615,0.559L15.3,19.471
		c-0.013,0.333-0.282,0.595-0.616,0.595H2.616z"/>
	<path fill="#D7231C" d="M12.407,10.033H4.529c-0.552,0-1,0.448-1,1c0,0.553,0.448,1,1,1h7.878c0.553,0,1-0.447,1-1
		C13.407,10.481,12.959,10.033,12.407,10.033z"/>
	<path fill="#D7231C" d="M12.407,12.933H4.529c-0.552,0-1,0.446-1,1c0,0.553,0.448,1,1,1h7.878c0.553,0,1-0.447,1-1
		C13.407,13.38,12.959,12.933,12.407,12.933z"/>
</g>
</svg>
