<?xml version="1.0" encoding="utf-8"?>
<!-- Generator: Adobe Illustrator 15.0.0, SVG Export Plug-In . SVG Version: 6.00 Build 0)  -->
<!DOCTYPE svg PUBLIC "-//W3C//DTD SVG 1.1//EN" "http://www.w3.org/Graphics/SVG/1.1/DTD/svg11.dtd">
<svg version="1.1" id="レイヤー_1" xmlns="http://www.w3.org/2000/svg" xmlns:xlink="http://www.w3.org/1999/xlink" x="0px"
	 y="0px" width="253.154px" height="38.66px" viewBox="0 0 253.154 38.66" enable-background="new 0 0 253.154 38.66"
	 xml:space="preserve">
<g>
	<path fill="#D7231C" d="M129.711,25.282h-1.835v2.332h-7.233v1.739h5.6c-1.441,2.661-3.605,4.861-6.242,6.348l1.2,1.521
		c2.776-1.777,5.069-4.215,6.676-7.093v7.253h1.835v-8.029h3.536v-1.739h-3.536V25.282z"/>
	<rect x="133.266" y="30.389" fill="#D7231C" width="9.742" height="1.736"/>
	<rect x="180.309" y="30.389" fill="#D7231C" width="9.742" height="1.736"/>
	<path fill="#D7231C" d="M156.856,29.572h-12.822v1.734h5.928c-0.241,2.389-2.086,4.304-4.466,4.635l1.486,1.718
		c2.087-1.084,4.587-2.539,4.831-6.354l5.043,0.002V29.572z"/>
	<polygon fill="#D7231C" points="174.885,27.67 179.608,27.67 179.608,25.934 168.515,25.934 168.515,27.67 173.048,27.67 
		173.048,35.646 167.705,35.646 167.705,37.383 180.282,37.383 180.282,35.646 174.882,35.646 	"/>
	<path fill="#D7231C" d="M204.071,31.938l-0.004-0.002h2.166v-1.299h-3.601v-1.758h3.15v-1.302h-3.15v-1.972h-1.473v1.972h-1.527
		c0.092-0.653,0.147-1.313,0.167-1.972h-1.375c-0.023,1.398-0.279,2.784-0.757,4.1l1.271,0.436c0.185-0.406,0.331-0.828,0.438-1.261
		h1.785v1.757h-3.983v0.76c-0.386-0.551-0.815-1.07-1.284-1.551v-0.613h1.56v-1.301h-1.56v-2.326h-1.474v2.326h-2.613v1.301h1.782
		c-0.201,1.624-0.85,3.16-1.872,4.438l0.674,1.601c0.967-1.389,1.656-2.951,2.03-4.601v6.728h1.474v-5.715
		c0.32,0.414,0.614,0.849,0.88,1.301l0.794-0.971c-0.013-0.024-0.03-0.051-0.044-0.074h2.208c-0.463,1.51-1.386,2.838-2.639,3.8
		l0.823,1.559c1.434-1.541,2.523-3.368,3.2-5.36h0.051v5.47h1.464v-5.472h0.055c0.677,1.993,1.767,3.82,3.2,5.361l0.822-1.559
		C205.458,34.775,204.535,33.447,204.071,31.938z"/>
	<polygon fill="#D7231C" points="249.36,36.087 249.36,30.26 252.59,30.26 252.59,28.96 249.36,28.96 249.36,25.605 247.887,25.605 
		247.887,28.96 244.913,28.96 244.913,30.26 247.887,30.26 247.887,36.087 244.387,36.087 244.387,37.387 253.15,37.387 
		253.15,36.087 	"/>
	<path fill="#D7231C" d="M245.636,33.24l-2.639-1.883c0.576-0.928,0.994-1.946,1.236-3.012l0.151-0.77h-1.955v-1.971h-1.474v1.972
		h-2.651v1.3h4.361c-0.285,0.907-0.74,1.752-1.342,2.488c-0.894,1.064-2.073,1.853-3.4,2.27l0.78,1.362
		c0.794-0.393,1.549-0.861,2.252-1.399v3.808h1.474v-4.95l2.34,1.795L245.636,33.24z"/>
	<path fill="#D7231C" d="M222.85,33.137h3.876l-1.515,2.801c-0.817,0.021-1.544,0.031-2.1,0.037l0.212,1.416l0.3-0.007
		c3.523-0.011,7.039-0.317,10.511-0.917c0.235,0.348,0.45,0.688,0.644,1.018l1.533-0.492c-0.767-1.314-1.698-2.524-2.774-3.6
		l-1.562,0.437c0.495,0.512,0.924,1,1.3,1.478c-2.113,0.322-4.244,0.516-6.381,0.58l1.484-2.746h8.273V31.84h-13.8L222.85,33.137z"
		/>
	<path fill="#D7231C" d="M230.804,25.232v-0.01h-2.101c-1.674,1.993-3.948,3.391-6.482,3.984l0.656,1.255
		c0.819-0.284,1.621-0.618,2.4-1v0.945h9.01v-0.9c0.76,0.368,1.54,0.691,2.337,0.968l0.659-1.254
		C234.75,28.626,232.476,27.227,230.804,25.232z M225.978,29.109c1.412-0.756,2.688-1.744,3.774-2.922
		c1.087,1.178,2.363,2.165,3.775,2.922H225.978z"/>
	<polygon fill="#D7231C" points="153.733,26.003 144.833,26.003 144.833,27.632 152.719,27.632 	"/>
	<polygon fill="#D7231C" points="154.736,27.632 156.747,27.632 157.766,26.003 155.752,26.003 	"/>
	<polygon fill="#D7231C" points="156.766,24.374 154.753,24.374 153.734,26.003 155.749,26.003 	"/>
	<path fill="#D7231C" d="M156.689,32.793l0.969,1.527c1.57-0.471,3.099-1.072,4.567-1.801v4.883h1.837v-5.967
		c1.403-0.922,2.548-2.188,3.325-3.676h-2.538C163.757,29.787,161.623,31.523,156.689,32.793z"/>
	<path fill="#D7231C" d="M212.282,31.797h2.771v-1.3h-7.047v1.3h2.801v4.008c-1.271,0.115-2.388,0.185-3.033,0.2v1.384
		c2.674-0.149,5.336-0.461,7.972-0.931v-1.3c-1.034,0.199-2.263,0.367-3.463,0.5V31.797z"/>
	<path fill="#D7231C" d="M220.121,35.932h-0.002c-0.606-0.462-1.126-1.027-1.535-1.67c-0.835-1.1-1.338-3.343-1.6-5.384h4.316
		l-0.846-1.3h-3.612c-0.067-0.782-0.1-1.48-0.1-2h-1.471c0,0.023-0.005,0.833,0.079,2h-7.918v1.3h8.039
		c0.238,2.089,0.766,4.675,1.923,6.206c2.034,2.691,3.063,2.463,3.377,2.294c0.727-0.394,1.039-1.433,1.039-3.635l-1.369-0.353
		C220.493,34.25,220.385,35.111,220.121,35.932z"/>
	<polygon fill="#D7231C" points="222.232,27.678 220.881,25.604 219.171,25.604 220.521,27.678 	"/>
	<path fill="#D7231C" d="M22.611,0.271c-2.171-0.374-4.391-0.374-6.563,0C7.982,1.668,1.666,7.986,0.271,16.053
		C-1.54,26.58,5.525,36.582,16.052,38.394s20.529-5.255,22.341-15.782C40.204,12.084,33.138,2.083,22.611,0.271z M21.935,28.761
		c-1.722,0.479-3.54,0.479-5.262,0c-3.302-0.898-5.881-3.48-6.776-6.784l-0.004,0.01c-1.456-5.227,1.601-10.645,6.827-12.101
		c1.725-0.48,3.548-0.48,5.272,0c3.301,0.899,5.88,3.476,6.781,6.775C30.227,21.891,27.165,27.309,21.935,28.761z"/>
	<path fill="#D7231C" d="M59.969,1.195c-0.902-0.137-1.813-0.206-2.727-0.207h-9.283c-3.291,0-5.958,2.668-5.959,5.959v30.6h9.536
		V10.526h5.362c4.254-0.08,7.987,2.822,8.96,6.964c1.008,4.766-2.038,9.445-6.804,10.453c-0.596,0.126-1.203,0.189-1.813,0.19h-2.93
		v9.538h2.339c9.178,0,17.391-6.49,18.728-15.57C76.896,12.072,69.997,2.712,59.969,1.195z"/>
	<path fill="#D7231C" d="M93.705,0.988h-8.657c-3.291,0-5.96,2.668-5.96,5.96v30.6h9.534V10.526h5.088c4.86,0,8.8,3.94,8.8,8.8
		v3.163h-11.5v9.21h11.5v5.847h9.534V19.33C112.044,9.201,103.834,0.99,93.705,0.988z"/>
</g>
</svg>
